<svg width="291" height="69" viewBox="0 0 291 69" fill="none" xmlns="http://www.w3.org/2000/svg">
<path d="M22.1746 16.4108H20.3352L5.84982 54.6471H3.66553L18.8406 14.4588H23.6116L38.7867 54.6471H36.5449L22.1746 16.4108ZM9.52864 41.0405H32.9811V42.9925H9.52864V41.0405ZM64.3018 33.5769L64.1293 33.7492V13.3106H66.2562V54.6471H64.2443L64.1868 47.1835C63.4204 49.4035 62.0408 51.2789 60.0482 52.8099C58.0555 54.3026 55.5646 55.0489 52.5756 55.0489C49.9314 55.0489 47.5938 54.4557 45.5628 53.2692C43.5701 52.0444 42.0181 50.322 40.9068 48.1021C39.8338 45.8822 39.2973 43.2795 39.2973 40.2941C39.2973 37.3087 39.8338 34.7252 40.9068 32.5435C42.0181 30.3236 43.5701 28.6013 45.5628 27.3765C47.5938 26.1517 49.9314 25.5393 52.5756 25.5393C55.7562 25.5393 58.3237 26.3239 60.2781 27.8932C62.2708 29.4242 63.612 31.3187 64.3018 33.5769ZM41.4816 40.2941C41.4816 44.2364 42.4971 47.3558 44.5282 49.6522C46.5975 51.9487 49.3758 53.0969 52.863 53.0969C55.0856 53.0969 57.04 52.5611 58.7261 51.4894C60.4505 50.4177 61.7726 48.925 62.6923 47.0113C63.6503 45.0976 64.1293 42.8585 64.1293 40.2941C64.1293 37.7297 63.6695 35.4907 62.7498 33.5769C61.8301 31.6632 60.508 30.1705 58.7836 29.0988C57.0974 28.0271 55.1239 27.4913 52.863 27.4913C49.3758 27.4913 46.5975 28.6395 44.5282 30.936C42.4971 33.2325 41.4816 36.3518 41.4816 40.2941ZM72.0366 25.9412L82.7857 51.9487L93.5347 25.9412H95.7765L83.7628 54.6471H81.751L69.7374 25.9412H72.0366ZM111.228 55.0489C108.546 55.0489 106.151 54.4557 104.043 53.2692C101.974 52.0827 100.326 50.3986 99.0996 48.2169C97.9117 45.997 97.3177 43.3561 97.3177 40.2941C97.3177 37.2704 97.9117 34.6486 99.0996 32.4287C100.326 30.2088 101.993 28.5056 104.101 27.3191C106.208 26.1325 108.584 25.5393 111.228 25.5393C113.911 25.5393 116.287 26.1325 118.356 27.3191C120.425 28.5056 122.054 30.2088 123.242 32.4287C124.468 34.6486 125.081 37.2704 125.081 40.2941C125.081 43.3561 124.468 45.997 123.242 48.2169C122.054 50.3986 120.406 52.0827 118.298 53.2692C116.229 54.4557 113.872 55.0489 111.228 55.0489ZM111.171 53.0969C113.202 53.0969 115.099 52.6376 116.861 51.7191C118.662 50.8005 120.119 49.4035 121.23 47.528C122.341 45.6143 122.897 43.203 122.897 40.2941C122.897 37.347 122.341 34.9357 121.23 33.0602C120.119 31.1848 118.662 29.7878 116.861 28.8692C115.099 27.9506 113.221 27.4913 111.228 27.4913C109.197 27.4913 107.3 27.9506 105.538 28.8692C103.775 29.7878 102.338 31.2039 101.226 33.1176C100.115 34.9931 99.5595 37.3853 99.5595 40.2941C99.5595 43.2413 100.096 45.6525 101.169 47.528C102.28 49.4035 103.717 50.8005 105.48 51.7191C107.281 52.6376 109.178 53.0969 111.171 53.0969ZM152.959 25.9412H154.971V48.3318C154.971 52.1209 154.186 55.336 152.615 57.9769C151.082 60.6179 148.821 62.6273 145.832 64.0052C142.881 65.4213 139.26 66.1294 134.968 66.1294L134.68 64.1774C140.62 64.1391 145.123 62.7613 148.188 60.0438C151.292 57.3646 152.844 53.4605 152.844 48.3318V46.8965L153.017 46.9539C152.25 49.1738 150.909 51.0684 148.993 52.6376C147.077 54.1686 144.51 54.9724 141.291 55.0489C138.608 55.0489 136.271 54.4557 134.278 53.2692C132.285 52.0444 130.733 50.322 129.622 48.1021C128.549 45.8822 128.012 43.2795 128.012 40.2941C128.012 37.3087 128.549 34.7252 129.622 32.5435C130.733 30.3236 132.285 28.6013 134.278 27.3765C136.271 26.1517 138.608 25.5393 141.291 25.5393C143.437 25.5393 145.276 25.9029 146.809 26.6301C148.38 27.3573 149.664 28.3142 150.66 29.5007C151.657 30.6489 152.404 31.9311 152.902 33.3473L152.959 25.9412ZM130.197 40.2941C130.197 44.2364 131.212 47.3558 133.243 49.6522C135.313 51.9487 138.11 53.0969 141.636 53.0969C143.858 53.0969 145.813 52.5611 147.499 51.4894C149.185 50.4177 150.488 48.925 151.407 47.0113C152.365 45.0593 152.844 42.8202 152.844 40.2941C152.844 37.7297 152.365 35.4907 151.407 33.5769C150.488 31.6632 149.185 30.1705 147.499 29.0988C145.813 28.0271 143.858 27.4913 141.636 27.4913C138.11 27.4913 135.313 28.6587 133.243 30.9934C131.212 33.2899 130.197 36.3901 130.197 40.2941ZM180.698 54.6471L180.64 47.4706C179.874 49.9202 178.552 51.7956 176.674 53.0969C174.835 54.3983 172.478 55.0489 169.604 55.0489C167.535 55.0489 165.772 54.7427 164.316 54.1304C162.859 53.518 161.729 52.6376 160.924 51.4894C160.158 50.3029 159.775 48.8867 159.775 47.2409C159.775 44.8296 160.675 42.8968 162.476 41.4424C164.316 39.9879 167.094 39.0693 170.811 38.6866L180.64 37.5958V35.0122C180.64 32.6009 179.893 30.7446 178.399 29.4433C176.942 28.142 174.892 27.4913 172.248 27.4913C169.681 27.4913 167.573 28.0845 165.925 29.2711C164.316 30.4193 163.243 32.0842 162.706 34.2659L160.809 33.5769C161.499 30.9743 162.802 28.984 164.718 27.6061C166.672 26.2282 169.163 25.5393 172.191 25.5393C175.524 25.5393 178.111 26.3622 179.951 28.008C181.79 29.6155 182.71 31.8737 182.71 34.7826V54.6471H180.698ZM180.64 39.4904L170.754 40.5812C167.688 40.8874 165.465 41.5955 164.086 42.7054C162.706 43.7771 162.016 45.2507 162.016 47.1261C162.016 49.0398 162.668 50.5326 163.971 51.6042C165.312 52.6759 167.19 53.2118 169.604 53.2118C171.941 53.2118 173.934 52.7333 175.582 51.7765C177.23 50.7813 178.475 49.4226 179.318 47.7002C180.2 45.9396 180.64 43.8728 180.64 41.4998V39.4904Z" fill="white"/>
<path d="M192.054 41.6541C192.258 42.8334 192.665 43.7891 193.275 44.5211C193.927 45.2124 194.701 45.7207 195.596 46.0461C196.533 46.3307 197.551 46.4731 198.65 46.4731C200.564 46.4731 202.029 46.0867 203.047 45.3141C204.106 44.5007 204.635 43.4637 204.635 42.2031C204.635 41.1864 204.31 40.3731 203.658 39.7631C203.047 39.1531 202.172 38.6447 201.032 38.2381C199.933 37.7907 198.65 37.3434 197.184 36.8961C195.556 36.4487 193.907 35.9404 192.237 35.3711C190.568 34.7611 189.021 34.0087 187.596 33.1141C186.171 32.1787 185.03 30.9791 184.175 29.5151C183.32 28.0511 182.913 26.2211 182.954 24.0251C182.954 21.3411 183.646 19.0637 185.03 17.1931C186.415 15.3224 188.288 13.9194 190.649 12.9841C193.011 12.0081 195.718 11.5201 198.772 11.5201C201.541 11.5201 204.004 11.9267 206.162 12.7401C208.32 13.5534 210.091 14.7531 211.476 16.3391C212.901 17.8844 213.898 19.8161 214.468 22.1341L204.696 23.8421C204.533 22.9474 204.167 22.2154 203.597 21.6461C203.027 21.0767 202.335 20.6701 201.52 20.4261C200.747 20.1414 199.973 19.9991 199.2 19.9991C198.222 19.9991 197.327 20.1617 196.512 20.4871C195.698 20.8124 195.026 21.2801 194.497 21.8901C194.008 22.5001 193.764 23.2117 193.764 24.0251C193.764 24.9197 194.049 25.6517 194.619 26.2211C195.23 26.7904 196.044 27.2987 197.062 27.7461C198.08 28.1934 199.2 28.6204 200.421 29.0271C202.091 29.5557 203.801 30.1251 205.551 30.7351C207.302 31.3451 208.931 32.1381 210.437 33.1141C211.944 34.0494 213.145 35.2694 214.041 36.7741C214.977 38.2381 215.445 40.0884 215.445 42.3251C215.445 44.7244 214.855 46.8797 213.674 48.7911C212.493 50.7024 210.722 52.2274 208.361 53.3661C205.999 54.5047 203.007 55.0741 199.383 55.0741C196.329 55.0741 193.581 54.6471 191.138 53.7931C188.736 52.8984 186.761 51.5971 185.214 49.8891C183.666 48.1811 182.649 46.0867 182.16 43.6061L192.054 41.6541ZM216.93 12.7843H227.349V38.6196C227.349 40.2143 227.669 41.5898 228.307 42.7461C228.945 43.8624 229.843 44.7196 231.001 45.3176C232.159 45.8759 233.516 46.1549 235.073 46.1549C236.669 46.1549 238.067 45.8759 239.264 45.3176C240.462 44.7196 241.38 43.8624 242.019 42.7461C242.698 41.5898 243.036 40.2143 243.036 38.6196V12.7843H253.455V37.6627C253.455 40.5732 252.956 43.1249 251.958 45.3176C250.961 47.4706 249.583 49.2847 247.827 50.7598C246.111 52.1951 244.135 53.2716 241.899 53.9892C239.663 54.7069 237.328 55.0657 234.893 55.0657C231.62 55.0657 228.627 54.4278 225.912 53.152C223.197 51.8363 221.022 49.9026 219.385 47.351C217.748 44.7594 216.93 41.53 216.93 37.6627V12.7843ZM264.877 41.6541C265.081 42.8334 265.488 43.7891 266.099 44.5211C266.75 45.2124 267.524 45.7207 268.419 46.0461C269.356 46.3307 270.374 46.4731 271.473 46.4731C273.387 46.4731 274.852 46.0867 275.87 45.3141C276.929 44.5007 277.458 43.4637 277.458 42.2031C277.458 41.1864 277.133 40.3731 276.481 39.7631C275.87 39.1531 274.995 38.6447 273.855 38.2381C272.756 37.7907 271.473 37.3434 270.007 36.8961C268.379 36.4487 266.73 35.9404 265.06 35.3711C263.391 34.7611 261.844 34.0087 260.419 33.1141C258.994 32.1787 257.854 30.9791 256.998 29.5151C256.143 28.0511 255.736 26.2211 255.777 24.0251C255.777 21.3411 256.469 19.0637 257.854 17.1931C259.238 15.3224 261.111 13.9194 263.472 12.9841C265.834 12.0081 268.542 11.5201 271.595 11.5201C274.364 11.5201 276.827 11.9267 278.985 12.7401C281.143 13.5534 282.914 14.7531 284.299 16.3391C285.724 17.8844 286.721 19.8161 287.291 22.1341L277.519 23.8421C277.357 22.9474 276.99 22.2154 276.42 21.6461C275.85 21.0767 275.158 20.6701 274.344 20.4261C273.57 20.1414 272.796 19.9991 272.023 19.9991C271.046 19.9991 270.15 20.1617 269.335 20.4871C268.521 20.8124 267.849 21.2801 267.32 21.8901C266.831 22.5001 266.587 23.2117 266.587 24.0251C266.587 24.9197 266.872 25.6517 267.442 26.2211C268.053 26.7904 268.867 27.2987 269.885 27.7461C270.903 28.1934 272.023 28.6204 273.244 29.0271C274.914 29.5557 276.624 30.1251 278.374 30.7351C280.125 31.3451 281.754 32.1381 283.26 33.1141C284.767 34.0494 285.968 35.2694 286.864 36.7741C287.8 38.2381 288.268 40.0884 288.268 42.3251C288.268 44.7244 287.678 46.8797 286.497 48.7911C285.317 50.7024 283.545 52.2274 281.184 53.3661C278.822 54.5047 275.83 55.0741 272.206 55.0741C269.152 55.0741 266.404 54.6471 263.961 53.7931C261.559 52.8984 259.584 51.5971 258.037 49.8891C256.49 48.1811 255.472 46.0867 254.983 43.6061L264.877 41.6541Z" fill="#005BAA"/>
<mask id="mask0_7_82" style="mask-type:luminance" maskUnits="userSpaceOnUse" x="0" y="8" width="291" height="61">
<path d="M291 8H0V69H291V8Z" fill="white"/>
<path d="M22.1746 16.4108H20.3352L5.84982 54.6471H3.66553L18.8406 14.4588H23.6116L38.7867 54.6471H36.5449L22.1746 16.4108ZM9.52864 41.0405H32.9811V42.9925H9.52864V41.0405ZM64.3018 33.5769L64.1293 33.7492V13.3106H66.2562V54.6471H64.2443L64.1868 47.1835C63.4204 49.4035 62.0408 51.2789 60.0482 52.8099C58.0555 54.3026 55.5646 55.0489 52.5756 55.0489C49.9314 55.0489 47.5938 54.4557 45.5628 53.2692C43.5701 52.0444 42.0181 50.322 40.9068 48.1021C39.8338 45.8822 39.2973 43.2795 39.2973 40.2941C39.2973 37.3087 39.8338 34.7252 40.9068 32.5435C42.0181 30.3236 43.5701 28.6013 45.5628 27.3765C47.5938 26.1517 49.9314 25.5393 52.5756 25.5393C55.7562 25.5393 58.3237 26.3239 60.2781 27.8932C62.2708 29.4242 63.612 31.3187 64.3018 33.5769ZM41.4816 40.2941C41.4816 44.2364 42.4971 47.3558 44.5282 49.6522C46.5975 51.9487 49.3758 53.0969 52.863 53.0969C55.0856 53.0969 57.04 52.5611 58.7261 51.4894C60.4505 50.4177 61.7726 48.925 62.6923 47.0113C63.6503 45.0976 64.1293 42.8585 64.1293 40.2941C64.1293 37.7297 63.6695 35.4907 62.7498 33.5769C61.8301 31.6632 60.508 30.1705 58.7836 29.0988C57.0974 28.0271 55.1239 27.4913 52.863 27.4913C49.3758 27.4913 46.5975 28.6395 44.5282 30.936C42.4971 33.2325 41.4816 36.3518 41.4816 40.2941ZM72.0366 25.9412L82.7857 51.9487L93.5347 25.9412H95.7765L83.7628 54.6471H81.751L69.7374 25.9412H72.0366ZM111.228 55.0489C108.546 55.0489 106.151 54.4557 104.043 53.2692C101.974 52.0827 100.326 50.3986 99.0996 48.2169C97.9117 45.997 97.3177 43.3561 97.3177 40.2941C97.3177 37.2704 97.9117 34.6486 99.0996 32.4287C100.326 30.2088 101.993 28.5056 104.101 27.3191C106.208 26.1325 108.584 25.5393 111.228 25.5393C113.911 25.5393 116.287 26.1325 118.356 27.3191C120.425 28.5056 122.054 30.2088 123.242 32.4287C124.468 34.6486 125.081 37.2704 125.081 40.2941C125.081 43.3561 124.468 45.997 123.242 48.2169C122.054 50.3986 120.406 52.0827 118.298 53.2692C116.229 54.4557 113.872 55.0489 111.228 55.0489ZM111.171 53.0969C113.202 53.0969 115.099 52.6376 116.861 51.7191C118.662 50.8005 120.119 49.4035 121.23 47.528C122.341 45.6143 122.897 43.203 122.897 40.2941C122.897 37.347 122.341 34.9357 121.23 33.0602C120.119 31.1848 118.662 29.7878 116.861 28.8692C115.099 27.9506 113.221 27.4913 111.228 27.4913C109.197 27.4913 107.3 27.9506 105.538 28.8692C103.775 29.7878 102.338 31.2039 101.226 33.1176C100.115 34.9931 99.5595 37.3853 99.5595 40.2941C99.5595 43.2413 100.096 45.6525 101.169 47.528C102.28 49.4035 103.717 50.8005 105.48 51.7191C107.281 52.6376 109.178 53.0969 111.171 53.0969ZM152.959 25.9412H154.971V48.3318C154.971 52.1209 154.186 55.336 152.615 57.9769C151.082 60.6179 148.821 62.6273 145.832 64.0052C142.881 65.4213 139.26 66.1294 134.968 66.1294L134.68 64.1774C140.62 64.1391 145.123 62.7613 148.188 60.0438C151.292 57.3646 152.844 53.4605 152.844 48.3318V46.8965L153.017 46.9539C152.25 49.1738 150.909 51.0684 148.993 52.6376C147.077 54.1686 144.51 54.9724 141.291 55.0489C138.608 55.0489 136.271 54.4557 134.278 53.2692C132.285 52.0444 130.733 50.322 129.622 48.1021C128.549 45.8822 128.012 43.2795 128.012 40.2941C128.012 37.3087 128.549 34.7252 129.622 32.5435C130.733 30.3236 132.285 28.6013 134.278 27.3765C136.271 26.1517 138.608 25.5393 141.291 25.5393C143.437 25.5393 145.276 25.9029 146.809 26.6301C148.38 27.3573 149.664 28.3142 150.66 29.5007C151.657 30.6489 152.404 31.9311 152.902 33.3473L152.959 25.9412ZM130.197 40.2941C130.197 44.2364 131.212 47.3558 133.243 49.6522C135.313 51.9487 138.11 53.0969 141.636 53.0969C143.858 53.0969 145.813 52.5611 147.499 51.4894C149.185 50.4177 150.488 48.925 151.407 47.0113C152.365 45.0593 152.844 42.8202 152.844 40.2941C152.844 37.7297 152.365 35.4907 151.407 33.5769C150.488 31.6632 149.185 30.1705 147.499 29.0988C145.813 28.0271 143.858 27.4913 141.636 27.4913C138.11 27.4913 135.313 28.6587 133.243 30.9934C131.212 33.2899 130.197 36.3901 130.197 40.2941ZM180.698 54.6471L180.64 47.4706C179.874 49.9202 178.552 51.7956 176.674 53.0969C174.835 54.3983 172.478 55.0489 169.604 55.0489C167.535 55.0489 165.772 54.7427 164.316 54.1304C162.859 53.518 161.729 52.6376 160.924 51.4894C160.158 50.3029 159.775 48.8867 159.775 47.2409C159.775 44.8296 160.675 42.8968 162.476 41.4424C164.316 39.9879 167.094 39.0693 170.811 38.6866L180.64 37.5958V35.0122C180.64 32.6009 179.893 30.7446 178.399 29.4433C176.942 28.142 174.892 27.4913 172.248 27.4913C169.681 27.4913 167.573 28.0845 165.925 29.2711C164.316 30.4193 163.243 32.0842 162.706 34.2659L160.809 33.5769C161.499 30.9743 162.802 28.984 164.718 27.6061C166.672 26.2282 169.163 25.5393 172.191 25.5393C175.524 25.5393 178.111 26.3622 179.951 28.008C181.79 29.6155 182.71 31.8737 182.71 34.7826V54.6471H180.698ZM180.64 39.4904L170.754 40.5812C167.688 40.8874 165.465 41.5955 164.086 42.7054C162.706 43.7771 162.016 45.2507 162.016 47.1261C162.016 49.0398 162.668 50.5326 163.971 51.6042C165.312 52.6759 167.19 53.2118 169.604 53.2118C171.941 53.2118 173.934 52.7333 175.582 51.7765C177.23 50.7813 178.475 49.4226 179.318 47.7002C180.2 45.9396 180.64 43.8728 180.64 41.4998V39.4904Z" fill="black"/>
<path d="M192.054 41.6541C192.258 42.8334 192.665 43.7891 193.275 44.5211C193.927 45.2124 194.701 45.7207 195.596 46.0461C196.533 46.3307 197.551 46.4731 198.65 46.4731C200.564 46.4731 202.029 46.0867 203.047 45.3141C204.106 44.5007 204.635 43.4637 204.635 42.2031C204.635 41.1864 204.31 40.3731 203.658 39.7631C203.047 39.1531 202.172 38.6447 201.032 38.2381C199.933 37.7907 198.65 37.3434 197.184 36.8961C195.556 36.4487 193.907 35.9404 192.237 35.3711C190.568 34.7611 189.021 34.0087 187.596 33.1141C186.171 32.1787 185.03 30.9791 184.175 29.5151C183.32 28.0511 182.913 26.2211 182.954 24.0251C182.954 21.3411 183.646 19.0637 185.03 17.1931C186.415 15.3224 188.288 13.9194 190.649 12.9841C193.011 12.0081 195.718 11.5201 198.772 11.5201C201.541 11.5201 204.004 11.9267 206.162 12.7401C208.32 13.5534 210.091 14.7531 211.476 16.3391C212.901 17.8844 213.898 19.8161 214.468 22.1341L204.696 23.8421C204.533 22.9474 204.167 22.2154 203.597 21.6461C203.027 21.0767 202.335 20.6701 201.52 20.4261C200.747 20.1414 199.973 19.9991 199.2 19.9991C198.222 19.9991 197.327 20.1617 196.512 20.4871C195.698 20.8124 195.026 21.2801 194.497 21.8901C194.008 22.5001 193.764 23.2117 193.764 24.0251C193.764 24.9197 194.049 25.6517 194.619 26.2211C195.23 26.7904 196.044 27.2987 197.062 27.7461C198.08 28.1934 199.2 28.6204 200.421 29.0271C202.091 29.5557 203.801 30.1251 205.551 30.7351C207.302 31.3451 208.931 32.1381 210.437 33.1141C211.944 34.0494 213.145 35.2694 214.041 36.7741C214.977 38.2381 215.445 40.0884 215.445 42.3251C215.445 44.7244 214.855 46.8797 213.674 48.7911C212.493 50.7024 210.722 52.2274 208.361 53.3661C205.999 54.5047 203.007 55.0741 199.383 55.0741C196.329 55.0741 193.581 54.6471 191.138 53.7931C188.736 52.8984 186.761 51.5971 185.214 49.8891C183.666 48.1811 182.649 46.0867 182.16 43.6061L192.054 41.6541ZM216.93 12.7843H227.349V38.6196C227.349 40.2143 227.669 41.5898 228.307 42.7461C228.945 43.8624 229.843 44.7196 231.001 45.3176C232.159 45.8759 233.516 46.1549 235.073 46.1549C236.669 46.1549 238.067 45.8759 239.264 45.3176C240.462 44.7196 241.38 43.8624 242.019 42.7461C242.698 41.5898 243.036 40.2143 243.036 38.6196V12.7843H253.455V37.6627C253.455 40.5732 252.956 43.1249 251.958 45.3176C250.961 47.4706 249.583 49.2847 247.827 50.7598C246.111 52.1951 244.135 53.2716 241.899 53.9892C239.663 54.7069 237.328 55.0657 234.893 55.0657C231.62 55.0657 228.627 54.4278 225.912 53.152C223.197 51.8363 221.022 49.9026 219.385 47.351C217.748 44.7594 216.93 41.53 216.93 37.6627V12.7843ZM264.877 41.6541C265.081 42.8334 265.488 43.7891 266.099 44.5211C266.75 45.2124 267.524 45.7207 268.419 46.0461C269.356 46.3307 270.374 46.4731 271.473 46.4731C273.387 46.4731 274.852 46.0867 275.87 45.3141C276.929 44.5007 277.458 43.4637 277.458 42.2031C277.458 41.1864 277.133 40.3731 276.481 39.7631C275.87 39.1531 274.995 38.6447 273.855 38.2381C272.756 37.7907 271.473 37.3434 270.007 36.8961C268.379 36.4487 266.73 35.9404 265.06 35.3711C263.391 34.7611 261.844 34.0087 260.419 33.1141C258.994 32.1787 257.854 30.9791 256.998 29.5151C256.143 28.0511 255.736 26.2211 255.777 24.0251C255.777 21.3411 256.469 19.0637 257.854 17.1931C259.238 15.3224 261.111 13.9194 263.472 12.9841C265.834 12.0081 268.542 11.5201 271.595 11.5201C274.364 11.5201 276.827 11.9267 278.985 12.7401C281.143 13.5534 282.914 14.7531 284.299 16.3391C285.724 17.8844 286.721 19.8161 287.291 22.1341L277.519 23.8421C277.357 22.9474 276.99 22.2154 276.42 21.6461C275.85 21.0767 275.158 20.6701 274.344 20.4261C273.57 20.1414 272.796 19.9991 272.023 19.9991C271.046 19.9991 270.15 20.1617 269.335 20.4871C268.521 20.8124 267.849 21.2801 267.32 21.8901C266.831 22.5001 266.587 23.2117 266.587 24.0251C266.587 24.9197 266.872 25.6517 267.442 26.2211C268.053 26.7904 268.867 27.2987 269.885 27.7461C270.903 28.1934 272.023 28.6204 273.244 29.0271C274.914 29.5557 276.624 30.1251 278.374 30.7351C280.125 31.3451 281.754 32.1381 283.26 33.1141C284.767 34.0494 285.968 35.2694 286.864 36.7741C287.8 38.2381 288.268 40.0884 288.268 42.3251C288.268 44.7244 287.678 46.8797 286.497 48.7911C285.317 50.7024 283.545 52.2274 281.184 53.3661C278.822 54.5047 275.83 55.0741 272.206 55.0741C269.152 55.0741 266.404 54.6471 263.961 53.7931C261.559 52.8984 259.584 51.5971 258.037 49.8891C256.49 48.1811 255.472 46.0867 254.983 43.6061L264.877 41.6541Z" fill="black"/>
</mask>
<g mask="url(#mask0_7_82)">
<path d="M22.1746 16.4108L24.4168 15.5701L23.8337 14.0187H22.1746V16.4108ZM20.3352 16.4108V14.0187H18.6806L18.0951 15.5643L20.3352 16.4108ZM5.84982 54.6471V57.0392H7.50436L8.08988 55.4936L5.84982 54.6471ZM3.66552 54.6471L1.42455 53.8029L0.202515 57.0392H3.66552V54.6471ZM18.8406 14.4588V12.0667H17.1842L16.5997 13.6147L18.8406 14.4588ZM23.6116 14.4588L25.8525 13.6147L25.268 12.0667H23.6116V14.4588ZM38.7867 54.6471V57.0392H42.2497L41.0276 53.8029L38.7867 54.6471ZM36.5449 54.6471L34.3027 55.4878L34.8857 57.0392H36.5449V54.6471ZM9.52863 41.0405V38.6483H7.13357V41.0405H9.52863ZM32.9811 41.0405H35.3761V38.6483H32.9811V41.0405ZM32.9811 42.9925V45.3846H35.3761V42.9925H32.9811ZM9.52863 42.9925H7.13357V45.3846H9.52863V42.9925ZM22.1746 14.0187H20.3352V18.803H22.1746V14.0187ZM18.0951 15.5643L3.60975 53.8005L8.08988 55.4936L22.5753 17.2574L18.0951 15.5643ZM5.84982 52.2549H3.66552V57.0392H5.84982V52.2549ZM5.90651 55.4912L21.0816 15.303L16.5997 13.6147L1.42455 53.8029L5.90651 55.4912ZM18.8406 16.851H23.6116V12.0667H18.8406V16.851ZM21.3707 15.303L36.5458 55.4912L41.0276 53.8029L25.8525 13.6147L21.3707 15.303ZM38.7867 52.2549H36.5449V57.0392H38.7867V52.2549ZM38.7872 53.8063L24.4168 15.5701L19.9323 17.2515L34.3027 55.4878L38.7872 53.8063ZM9.52863 43.4326H32.9811V38.6483H9.52863V43.4326ZM30.586 41.0405V42.9925H35.3761V41.0405H30.586ZM32.9811 40.6003H9.52863V45.3846H32.9811V40.6003ZM11.9237 42.9925V41.0405H7.13357V42.9925H11.9237ZM64.3018 33.5769L65.9953 35.2684L67.0123 34.2527L66.5925 32.8789L64.3018 33.5769ZM64.1293 33.7492H61.7343V39.5243L65.8229 35.4407L64.1293 33.7492ZM64.1293 13.3106V10.9184H61.7343V13.3106H64.1293ZM66.2561 13.3106H68.6512V10.9184H66.2561V13.3106ZM66.2561 54.6471V57.0392H68.6512V54.6471H66.2561ZM64.2443 54.6471L61.8492 54.6655L61.8676 57.0392H64.2443V54.6471ZM64.1868 47.1835L66.5818 47.1651L61.9225 46.4037L64.1868 47.1835ZM60.0481 52.8099L61.4852 54.7236L61.4968 54.7149L61.5084 54.7059L60.0481 52.8099ZM45.5628 53.2692L44.3076 55.3065L44.3304 55.3206L44.3535 55.3341L45.5628 53.2692ZM40.9068 48.1021L38.7499 49.1421L38.7571 49.1571L38.7646 49.1719L40.9068 48.1021ZM40.9068 32.5435L38.7646 31.4736L38.7571 31.4888L40.9068 32.5435ZM45.5628 27.3765L44.3248 25.3287L44.3162 25.3338L44.3076 25.3392L45.5628 27.3765ZM60.2781 27.8932L58.7775 29.7576L58.7974 29.7736L58.8178 29.7892L60.2781 27.8932ZM44.5281 49.6522L42.7331 51.236L42.7405 51.2442L42.7479 51.2525L44.5281 49.6522ZM58.7261 51.4894L57.4608 49.4583L57.4505 49.4647L57.4402 49.4713L58.7261 51.4894ZM62.6923 47.0113L60.55 45.9415L60.5414 45.9587L60.533 45.9761L62.6923 47.0113ZM58.7836 29.0988L57.4977 31.117L57.5079 31.1235L57.5182 31.1299L58.7836 29.0988ZM44.5281 30.936L42.7479 29.3358L42.7405 29.344L42.7331 29.3523L44.5281 30.936ZM62.6082 31.8854L62.4358 32.0577L65.8229 35.4407L65.9953 35.2684L62.6082 31.8854ZM66.5244 33.7492V13.3106H61.7343V33.7492H66.5244ZM64.1293 15.7027H66.2561V10.9184H64.1293V15.7027ZM63.8611 13.3106V54.6471H68.6512V13.3106H63.8611ZM66.2561 52.2549H64.2443V57.0392H66.2561V52.2549ZM66.6392 54.6286L66.5818 47.1651L61.7918 47.2019L61.8492 54.6655L66.6392 54.6286ZM61.9225 46.4037C61.3197 48.1498 60.2359 49.6476 58.5879 50.9139L61.5084 54.7059C63.8456 52.9102 65.521 50.6571 66.451 47.9634L61.9225 46.4037ZM58.6111 50.8962C57.1108 52.02 55.1529 52.6568 52.5756 52.6568V57.4411C55.9762 57.4411 59.0001 56.5852 61.4852 54.7236L58.6111 50.8962ZM52.5756 52.6568C50.3026 52.6568 48.3923 52.151 46.772 51.2043L44.3535 55.3341C46.7952 56.7604 49.5602 57.4411 52.5756 57.4411V52.6568ZM46.8181 51.2319C45.2294 50.2554 43.9736 48.8793 43.049 47.0323L38.7646 49.1719C40.0626 51.7647 41.9108 53.8334 44.3076 55.3065L46.8181 51.2319ZM43.0637 47.0621C42.177 45.2278 41.6924 42.9943 41.6924 40.2941H36.9023C36.9023 43.5648 37.4905 46.5366 38.7499 49.1421L43.0637 47.0621ZM41.6924 40.2941C41.6924 37.5925 42.1775 35.3853 43.0565 33.5982L38.7571 31.4888C37.49 34.0651 36.9023 37.0249 36.9023 40.2941H41.6924ZM43.049 33.6133C43.9736 31.7663 45.2294 30.3902 46.8181 29.4137L44.3076 25.3392C41.9108 26.8123 40.0626 28.8808 38.7646 31.4736L43.049 33.6133ZM46.8007 29.4243C48.4165 28.4498 50.3164 27.9314 52.5756 27.9314V23.1471C49.5464 23.1471 46.771 23.8535 44.3248 25.3287L46.8007 29.4243ZM52.5756 27.9314C55.3596 27.9314 57.3518 28.6129 58.7775 29.7576L61.7787 26.0287C59.2956 24.035 56.1527 23.1471 52.5756 23.1471V27.9314ZM58.8178 29.7892C60.4421 31.0373 61.476 32.5238 62.0109 34.275L66.5925 32.8789C65.7479 30.1137 64.0993 27.811 61.7383 25.9972L58.8178 29.7892ZM39.0866 40.2941C39.0866 44.648 40.215 48.3888 42.7331 51.236L46.3231 48.0685C44.7792 46.3227 43.8767 43.8248 43.8767 40.2941H39.0866ZM42.7479 51.2525C45.3319 54.1201 48.7927 55.4891 52.863 55.4891V50.7048C49.9587 50.7048 47.863 49.7773 46.3084 48.052L42.7479 51.2525ZM52.863 55.4891C55.4883 55.4891 57.8993 54.8504 60.0119 53.5076L57.4402 49.4713C56.1806 50.2718 54.6829 50.7048 52.863 50.7048V55.4891ZM59.9914 53.5205C62.121 52.197 63.7443 50.3503 64.8514 48.0465L60.533 45.9761C59.8009 47.4998 58.78 48.6384 57.4608 49.4583L59.9914 53.5205ZM64.8344 48.0811C65.9886 45.7755 66.5244 43.1569 66.5244 40.2941H61.7343C61.7343 42.5601 61.3119 44.4196 60.55 45.9415L64.8344 48.0811ZM66.5244 40.2941C66.5244 37.4448 66.0128 34.8388 64.9089 32.5417L60.5905 34.6121C61.326 36.1425 61.7343 38.0146 61.7343 40.2941H66.5244ZM64.9089 32.5417C63.8018 30.238 62.1784 28.3912 60.0489 27.0678L57.5182 31.1299C58.8374 31.9498 59.8583 33.0885 60.5905 34.6121L64.9089 32.5417ZM60.0693 27.0807C57.9502 25.7337 55.5179 25.0991 52.863 25.0991V29.8834C54.7299 29.8834 56.2447 30.3205 57.4977 31.117L60.0693 27.0807ZM52.863 25.0991C48.7927 25.0991 45.3319 26.4682 42.7479 29.3358L46.3084 32.5362C47.863 30.8109 49.9587 29.8834 52.863 29.8834V25.0991ZM42.7331 29.3523C40.215 32.1994 39.0866 35.9403 39.0866 40.2941H43.8767C43.8767 36.7634 44.7792 34.2655 46.3231 32.5197L42.7331 29.3523ZM72.0366 25.9412L74.2505 25.0284L73.639 23.549H72.0366V25.9412ZM82.7857 51.9487L80.5718 52.8614L82.7857 58.218L84.9995 52.8614L82.7857 51.9487ZM93.5347 25.9412V23.549H91.9323L91.3208 25.0284L93.5347 25.9412ZM95.7765 25.9412L97.9863 26.8637L99.3735 23.549H95.7765V25.9412ZM83.7628 54.6471V57.0392H85.3576L85.9727 55.5696L83.7628 54.6471ZM81.751 54.6471L79.5412 55.5696L80.1562 57.0392H81.751V54.6471ZM69.7374 25.9412V23.549H66.1404L67.5276 26.8637L69.7374 25.9412ZM69.8228 26.8539L80.5718 52.8614L84.9995 51.036L74.2505 25.0284L69.8228 26.8539ZM84.9995 52.8614L95.7486 26.8539L91.3208 25.0284L80.5718 51.036L84.9995 52.8614ZM93.5347 28.3333H95.7765V23.549H93.5347V28.3333ZM93.5667 25.0186L81.553 53.7245L85.9727 55.5696L97.9863 26.8637L93.5667 25.0186ZM83.7628 52.2549H81.751V57.0392H83.7628V52.2549ZM83.9608 53.7245L71.9472 25.0186L67.5276 26.8637L79.5412 55.5696L83.9608 53.7245ZM69.7374 28.3333H72.0366V23.549H69.7374V28.3333ZM104.043 53.2692L102.851 55.3438L102.859 55.3484L102.867 55.3531L104.043 53.2692ZM99.0996 48.2169L96.9873 49.3446L96.999 49.3664L97.0111 49.388L99.0996 48.2169ZM99.0996 32.4287L97.0025 31.2731L96.9948 31.287L96.9873 31.301L99.0996 32.4287ZM123.242 32.4287L121.13 33.5564L121.137 33.5704L121.145 33.5844L123.242 32.4287ZM123.242 48.2169L121.145 47.0613L121.138 47.0741L123.242 48.2169ZM118.298 53.2692L117.122 51.1852L117.114 51.1899L117.106 51.1946L118.298 53.2692ZM116.861 51.7191L115.772 49.5886L115.763 49.5934L115.753 49.5982L116.861 51.7191ZM121.23 47.528L123.291 48.7463L123.296 48.7374L123.302 48.7281L121.23 47.528ZM116.861 28.8692L115.753 30.9901L115.763 30.9948L115.772 30.9996L116.861 28.8692ZM101.226 33.1176L103.288 34.336L103.293 34.327L103.298 34.3178L101.226 33.1176ZM101.169 47.528L99.0894 48.7149L99.0986 48.7307L99.1078 48.7463L101.169 47.528ZM105.48 51.7191L104.372 53.8399L104.381 53.8447L104.391 53.8495L105.48 51.7191ZM111.228 52.6568C108.912 52.6568 106.93 52.1483 105.219 51.1852L102.867 55.3531C105.371 56.763 108.18 57.4411 111.228 57.4411V52.6568ZM105.235 51.1946C103.56 50.2339 102.214 48.8707 101.188 47.0459L97.0111 49.388C98.438 51.9265 100.387 53.9314 102.851 55.3438L105.235 51.1946ZM101.212 47.0893C100.246 45.2838 99.7128 43.047 99.7128 40.2941H94.9226C94.9226 43.6651 95.5776 46.7102 96.9873 49.3446L101.212 47.0893ZM99.7128 40.2941C99.7128 37.5851 100.244 35.3659 101.212 33.5564L96.9873 31.301C95.5798 33.9313 94.9226 36.9557 94.9226 40.2941H99.7128ZM101.197 33.5844C102.219 31.7332 103.576 30.3604 105.276 29.403L102.925 25.2351C100.41 26.6507 98.4325 28.6844 97.0025 31.2731L101.197 33.5844ZM105.276 29.403C106.992 28.437 108.957 27.9314 111.228 27.9314V23.1471C108.211 23.1471 105.424 23.8281 102.925 25.2351L105.276 29.403ZM111.228 27.9314C113.545 27.9314 115.5 28.4401 117.163 29.3937L119.548 25.2445C117.073 23.825 114.276 23.1471 111.228 23.1471V27.9314ZM117.163 29.3937C118.821 30.3441 120.141 31.7087 121.13 33.5564L125.354 31.301C123.967 28.7089 122.029 26.6671 119.548 25.2445L117.163 29.3937ZM121.145 33.5844C122.141 35.388 122.686 37.5968 122.686 40.2941H127.476C127.476 36.944 126.795 33.9092 125.338 31.2731L121.145 33.5844ZM122.686 40.2941C122.686 43.0354 122.139 45.2619 121.145 47.0613L125.338 49.3726C126.797 46.7321 127.476 43.6767 127.476 40.2941H122.686ZM121.138 47.0741C120.158 48.8728 118.827 50.2255 117.122 51.1852L119.474 55.3531C121.985 53.9398 123.949 51.9244 125.346 49.3598L121.138 47.0741ZM117.106 51.1946C115.438 52.1511 113.5 52.6568 111.228 52.6568V57.4411C114.244 57.4411 117.02 56.7603 119.491 55.3438L117.106 51.1946ZM111.171 55.4891C113.579 55.4891 115.857 54.9407 117.969 53.8399L115.753 49.5982C114.34 50.3346 112.825 50.7048 111.171 50.7048V55.4891ZM117.951 53.8495C120.188 52.7087 121.968 50.9795 123.291 48.7463L119.169 46.3097C118.27 47.8274 117.137 48.8922 115.772 49.5886L117.951 53.8495ZM123.302 48.7281C124.681 46.3525 125.292 43.4955 125.292 40.2941H120.502C120.502 42.9104 120.001 44.8761 119.158 46.3279L123.302 48.7281ZM125.292 40.2941C125.292 37.0639 124.685 34.1941 123.291 31.8419L119.169 34.2786C119.998 35.6773 120.502 37.6301 120.502 40.2941H125.292ZM123.291 31.8419C121.968 29.6086 120.188 27.8795 117.951 26.7387L115.772 30.9996C117.137 31.696 118.27 32.7609 119.169 34.2786L123.291 31.8419ZM117.969 26.7483C115.864 25.6511 113.606 25.0991 111.228 25.0991V29.8834C112.836 29.8834 114.334 30.25 115.753 30.9901L117.969 26.7483ZM111.228 25.0991C108.82 25.0991 106.542 25.6475 104.43 26.7483L106.645 30.9901C108.059 30.2536 109.574 29.8834 111.228 29.8834V25.0991ZM104.43 26.7483C102.22 27.8999 100.467 29.658 99.1546 31.9175L103.298 34.3178C104.209 32.7499 105.33 31.6757 106.645 30.9901L104.43 26.7483ZM99.1653 31.8993C97.774 34.2472 97.1644 37.0956 97.1644 40.2941H101.955C101.955 37.6749 102.456 35.739 103.288 34.336L99.1653 31.8993ZM97.1644 40.2941C97.1644 43.5122 97.7477 46.3698 99.0894 48.7149L103.248 46.3411C102.444 44.9353 101.955 42.9703 101.955 40.2941H97.1644ZM99.1078 48.7463C100.424 50.9668 102.176 52.6953 104.372 53.8399L106.588 49.5982C105.259 48.9056 104.137 47.8401 103.23 46.3097L99.1078 48.7463ZM104.391 53.8495C106.524 54.9375 108.794 55.4891 111.171 55.4891V50.7048C109.562 50.7048 108.038 50.3378 106.569 49.5886L104.391 53.8495ZM152.959 25.9412V23.549H150.582L150.564 25.9226L152.959 25.9412ZM154.971 25.9412H157.366V23.549H154.971V25.9412ZM152.615 57.9769L150.555 56.7549L150.549 56.766L150.542 56.7772L152.615 57.9769ZM145.832 64.0052L144.827 61.8332L144.81 61.841L144.793 61.849L145.832 64.0052ZM134.968 66.1294L132.598 66.4775L132.898 68.5216H134.968V66.1294ZM134.68 64.1774L134.665 61.7852L131.909 61.8031L132.31 64.5255L134.68 64.1774ZM148.188 60.0438L146.622 58.2339L146.61 58.2441L146.598 58.2547L148.188 60.0438ZM152.844 46.8965L153.601 44.627L150.449 43.5775V46.8965H152.844ZM153.017 46.9539L155.28 47.7337L156.069 45.4487L153.774 44.6844L153.017 46.9539ZM148.993 52.6376L150.489 54.5056L150.5 54.4966L150.512 54.4874L148.993 52.6376ZM141.291 55.0489V57.4411H141.318L141.347 57.4404L141.291 55.0489ZM134.278 53.2692L133.022 55.3065L133.036 55.3153L133.05 55.3239L134.278 53.2692ZM129.622 48.1021L127.464 49.1421L127.471 49.1571L127.48 49.1719L129.622 48.1021ZM129.622 32.5435L127.48 31.4736L127.471 31.4888L129.622 32.5435ZM146.809 26.6301L145.78 28.791L145.791 28.7957L145.802 28.8005L146.809 26.6301ZM150.66 29.5007L148.824 31.0379L148.838 31.0527L148.849 31.0674L150.66 29.5007ZM152.902 33.3473L150.642 34.1403L155.296 33.3658L152.902 33.3473ZM133.243 49.6522L131.448 51.236L131.455 51.2442L131.463 51.2525L133.243 49.6522ZM151.407 47.0113L149.257 45.9584L149.252 45.9672L149.247 45.9761L151.407 47.0113ZM151.407 33.5769L149.247 34.6121L149.255 34.6295L149.265 34.6467L151.407 33.5769ZM133.243 30.9934L131.449 29.4078L131.448 29.4097L133.243 30.9934ZM152.959 28.3333H154.971V23.549H152.959V28.3333ZM152.576 25.9412V48.3318H157.366V25.9412H152.576ZM152.576 48.3318C152.576 51.7907 151.86 54.5611 150.555 56.7549L154.673 59.199C156.51 56.1109 157.366 52.4512 157.366 48.3318H152.576ZM150.542 56.7772C149.276 58.9586 147.405 60.645 144.827 61.8332L146.835 66.1771C150.235 64.6096 152.886 62.2772 154.686 59.1767L150.542 56.7772ZM144.793 61.849C142.251 63.0694 139.007 63.7372 134.968 63.7372V68.5216C139.511 68.5216 143.51 67.7733 146.869 66.1613L144.793 61.849ZM137.336 65.7813L137.049 63.8293L132.31 64.5255L132.598 66.4775L137.336 65.7813ZM134.695 66.5696C140.959 66.5291 146.118 65.0767 149.778 61.833L146.598 58.2547C144.126 60.4458 140.28 61.7491 134.665 61.7852L134.695 66.5696ZM149.754 61.8537C153.513 58.6095 155.24 53.9664 155.24 48.3318H150.449C150.449 52.9547 149.071 56.1195 146.622 58.2339L149.754 61.8537ZM155.24 48.3318V46.8965H150.449V48.3318H155.24ZM152.086 49.1659L152.259 49.2233L153.774 44.6844L153.601 44.627L152.086 49.1659ZM150.752 46.174C150.138 47.9522 149.066 49.4836 147.474 50.7879L150.512 54.4874C152.751 52.6532 154.362 50.3954 155.28 47.7337L150.752 46.174ZM147.496 50.7697C146.101 51.8842 144.092 52.5894 141.233 52.6575L141.347 57.4404C144.926 57.3553 148.052 56.453 150.489 54.5056L147.496 50.7697ZM141.291 52.6568C138.971 52.6568 137.071 52.1475 135.504 51.2144L133.05 55.3239C135.469 56.7639 138.244 57.4411 141.291 57.4411V52.6568ZM135.533 51.2319C133.944 50.2554 132.688 48.8793 131.763 47.0323L127.48 49.1719C128.778 51.7647 130.625 53.8334 133.022 55.3065L135.533 51.2319ZM131.779 47.0621C130.891 45.2278 130.408 42.9943 130.408 40.2941H125.617C125.617 43.5648 126.205 46.5366 127.464 49.1421L131.779 47.0621ZM130.408 40.2941C130.408 37.5925 130.893 35.3853 131.771 33.5982L127.471 31.4888C126.204 34.0651 125.617 37.0249 125.617 40.2941H130.408ZM131.763 33.6133C132.688 31.7663 133.944 30.3902 135.533 29.4137L133.022 25.3392C130.625 26.8123 128.778 28.8808 127.48 31.4736L131.763 33.6133ZM135.533 29.4137C137.095 28.4534 138.984 27.9314 141.291 27.9314V23.1471C138.231 23.1471 135.446 23.85 133.022 25.3392L135.533 29.4137ZM141.291 27.9314C143.172 27.9314 144.643 28.2508 145.78 28.791L147.836 24.4693C145.908 23.555 143.7 23.1471 141.291 23.1471V27.9314ZM145.802 28.8005C147.09 29.3974 148.079 30.1507 148.824 31.0379L152.495 27.9635C151.247 26.4777 149.669 25.3173 147.815 24.4597L145.802 28.8005ZM148.849 31.0674C149.651 31.9912 150.245 33.0116 150.642 34.1403L155.16 32.5543C154.562 30.8507 153.661 29.3067 152.47 27.934L148.849 31.0674ZM155.296 33.3658L155.353 25.9597L150.564 25.9226L150.507 33.3288L155.296 33.3658ZM127.802 40.2941C127.802 44.648 128.93 48.3888 131.448 51.236L135.037 48.0685C133.494 46.3227 132.592 43.8248 132.592 40.2941H127.802ZM131.463 51.2525C134.052 54.126 137.535 55.4891 141.636 55.4891V50.7048C138.684 50.7048 136.572 49.7714 135.023 48.052L131.463 51.2525ZM141.636 55.4891C144.261 55.4891 146.671 54.8504 148.784 53.5076L146.213 49.4713C144.953 50.2718 143.455 50.7048 141.636 50.7048V55.4891ZM148.784 53.5076C150.872 52.1807 152.466 50.3362 153.567 48.0465L149.247 45.9761C148.508 47.5139 147.496 48.6547 146.213 49.4713L148.784 53.5076ZM153.557 48.0642C154.701 45.7353 155.24 43.1262 155.24 40.2941H150.449C150.449 42.5143 150.029 44.3833 149.257 45.9584L153.557 48.0642ZM155.24 40.2941C155.24 37.4313 154.703 34.8127 153.549 32.5072L149.265 34.6467C150.027 36.1686 150.449 38.0281 150.449 40.2941H155.24ZM153.567 32.5417C152.466 30.2521 150.872 28.4075 148.784 27.0807L146.213 31.117C147.496 31.9335 148.508 33.0743 149.247 34.6121L153.567 32.5417ZM148.784 27.0807C146.671 25.7378 144.261 25.0991 141.636 25.0991V29.8834C143.455 29.8834 144.953 30.3164 146.213 31.117L148.784 27.0807ZM141.636 25.0991C137.522 25.0991 134.035 26.4908 131.449 29.4078L135.036 32.5791C136.589 30.8266 138.697 29.8834 141.636 29.8834V25.0991ZM131.448 29.4097C128.933 32.2528 127.802 35.9716 127.802 40.2941H132.592C132.592 36.8086 133.49 34.327 135.037 32.5771L131.448 29.4097ZM180.698 54.6471L178.303 54.6662L178.321 57.0392H180.698V54.6471ZM180.64 47.4706L183.034 47.4514L178.354 46.757L180.64 47.4706ZM176.674 53.0969L175.308 51.1315L175.298 51.1381L175.289 51.1449L176.674 53.0969ZM160.924 51.4894L158.911 52.7863L158.935 52.8242L158.961 52.8612L160.924 51.4894ZM162.476 41.4424L160.989 39.5668L160.979 39.5744L160.97 39.5821L162.476 41.4424ZM170.811 38.6866L171.057 41.0662L171.066 41.0651L171.074 41.0642L170.811 38.6866ZM180.64 37.5958L180.904 39.9733L183.035 39.7369V37.5958H180.64ZM178.399 29.4433L176.801 31.226L176.813 31.2363L176.824 31.2464L178.399 29.4433ZM165.925 29.2711L167.317 31.2177L167.325 31.2116L165.925 29.2711ZM162.706 34.2659L161.887 36.514L164.395 37.4248L165.032 34.8364L162.706 34.2659ZM160.809 33.5769L158.493 32.9648L157.933 35.078L159.99 35.8251L160.809 33.5769ZM164.718 27.6061L163.336 25.6518L163.328 25.6583L163.318 25.6648L164.718 27.6061ZM179.951 28.008L178.352 29.7898L178.363 29.7991L178.373 29.8083L179.951 28.008ZM182.71 54.6471V57.0392H185.105V54.6471H182.71ZM180.64 39.4903H183.035V36.8194L180.377 37.1127L180.64 39.4903ZM170.754 40.5812L170.992 42.9615L171.004 42.9602L171.016 42.9589L170.754 40.5812ZM164.086 42.7054L165.555 44.5937L165.572 44.5811L165.587 44.5683L164.086 42.7054ZM163.971 51.6042L162.447 53.4509L162.461 53.4616L162.474 53.4722L163.971 51.6042ZM175.582 51.7765L176.785 53.8445L176.803 53.8342L176.82 53.8236L175.582 51.7765ZM179.318 47.7002L177.176 46.6305L177.171 46.64L177.166 46.6496L179.318 47.7002ZM183.092 54.6279L183.034 47.4514L178.245 47.4897L178.303 54.6662L183.092 54.6279ZM178.354 46.757C177.726 48.7652 176.694 50.1711 175.308 51.1315L178.039 55.0623C180.408 53.4201 182.021 51.0751 182.925 48.1842L178.354 46.757ZM175.289 51.1449C173.953 52.09 172.118 52.6568 169.604 52.6568V57.4411C172.837 57.4411 175.715 56.7066 178.058 55.0489L175.289 51.1449ZM169.604 52.6568C167.76 52.6568 166.331 52.3824 165.245 51.9256L163.385 56.3351C165.211 57.1031 167.309 57.4411 169.604 57.4411V52.6568ZM165.245 51.9256C164.15 51.4655 163.401 50.8515 162.886 50.1176L158.961 52.8612C160.057 54.4237 161.567 55.5704 163.385 56.3351L165.245 51.9256ZM162.936 50.1925C162.458 49.4531 162.17 48.5045 162.17 47.2409H157.38C157.38 49.269 157.856 51.1527 158.911 52.7863L162.936 50.1925ZM162.17 47.2409C162.17 45.5167 162.77 44.281 163.981 43.3026L160.97 39.5821C158.579 41.5126 157.38 44.1426 157.38 47.2409H162.17ZM163.962 43.3179C165.29 42.2673 167.548 41.4274 171.057 41.0662L170.564 36.307C166.64 36.7113 163.34 37.7086 160.989 39.5668L163.962 43.3179ZM171.074 41.0642L180.904 39.9733L180.376 35.2182L170.546 36.309L171.074 41.0642ZM183.035 37.5958V35.0122H178.245V37.5958H183.035ZM183.035 35.0122C183.035 32.0736 182.1 29.4934 179.972 27.6402L176.824 31.2464C177.685 31.9958 178.245 33.1283 178.245 35.0122H183.035ZM179.995 27.6605C177.965 25.8462 175.271 25.0991 172.248 25.0991V29.8834C174.513 29.8834 175.918 30.4377 176.801 31.226L179.995 27.6605ZM172.248 25.0991C169.311 25.0991 166.676 25.781 164.524 27.3305L167.325 31.2116C168.469 30.3881 170.049 29.8834 172.248 29.8834V25.0991ZM164.532 27.3244C162.394 28.8506 161.033 31.0393 160.379 33.6952L165.032 34.8364C165.451 33.1291 166.236 31.9879 167.317 31.2177L164.532 27.3244ZM163.524 32.0177L161.627 31.3288L159.99 35.8251L161.887 36.514L163.524 32.0177ZM163.124 34.1891C163.693 32.0419 164.714 30.5562 166.117 29.5475L163.318 25.6648C160.888 27.4118 159.304 29.9067 158.493 32.9648L163.124 34.1891ZM166.099 29.5604C167.553 28.535 169.525 27.9314 172.191 27.9314V23.1471C168.8 23.1471 165.791 23.9215 163.336 25.6518L166.099 29.5604ZM172.191 27.9314C175.142 27.9314 177.086 28.657 178.352 29.7898L181.548 26.2262C179.135 24.0674 175.905 23.1471 172.191 23.1471V27.9314ZM178.373 29.8083C179.593 30.8742 180.315 32.4187 180.315 34.7826H185.105C185.105 31.3288 183.986 28.3569 181.528 26.2077L178.373 29.8083ZM180.315 34.7826V54.6471H185.105V34.7826H180.315ZM182.71 52.2549H180.698V57.0392H182.71V52.2549ZM180.377 37.1127L170.49 38.2035L171.016 42.9589L180.903 41.868L180.377 37.1127ZM170.515 38.2009C167.288 38.5232 164.504 39.2966 162.583 40.8425L165.587 44.5683C166.426 43.8943 168.088 43.2515 170.992 42.9615L170.515 38.2009ZM162.615 40.8172C160.603 42.3796 159.621 44.5758 159.621 47.1261H164.411C164.411 45.9255 164.808 45.1746 165.555 44.5937L162.615 40.8172ZM159.621 47.1261C159.621 49.646 160.513 51.8598 162.447 53.4509L165.493 49.7576C164.821 49.2053 164.411 48.4337 164.411 47.1261H159.621ZM162.474 53.4722C164.383 54.9974 166.862 55.6039 169.604 55.6039V50.8196C167.517 50.8196 166.24 50.3544 165.466 49.7363L162.474 53.4722ZM169.604 55.6039C172.268 55.6039 174.697 55.0568 176.785 53.8445L174.377 49.7084C173.17 50.4098 171.613 50.8196 169.604 50.8196V55.6039ZM176.82 53.8236C178.861 52.5915 180.424 50.8874 181.469 48.7509L177.166 46.6496C176.526 47.9578 175.598 48.9712 174.343 49.7294L176.82 53.8236ZM181.459 48.77C182.538 46.6157 183.035 44.1687 183.035 41.4998H178.245C178.245 43.5769 177.86 45.2635 177.176 46.6305L181.459 48.77ZM183.035 41.4998V39.4903H178.245V41.4998H183.035ZM192.054 41.6541L194.414 41.2476L193.998 38.8323L191.591 39.3072L192.054 41.6541ZM193.275 44.5211L191.436 46.0525L191.482 46.108L191.532 46.1605L193.275 44.5211ZM195.596 46.0461L194.778 48.2942L194.838 48.316L194.899 48.3345L195.596 46.0461ZM203.047 45.3141L204.496 47.2187L204.508 47.2101L203.047 45.3141ZM203.658 39.7631L201.965 41.4545L201.992 41.4818L202.02 41.5083L203.658 39.7631ZM201.032 38.2381L200.129 40.4534L200.177 40.4732L200.227 40.4909L201.032 38.2381ZM197.184 36.8961L197.885 34.6083L197.852 34.5985L197.82 34.5895L197.184 36.8961ZM192.237 35.3711L191.415 37.6175L191.438 37.6265L191.464 37.6349L192.237 35.3711ZM187.596 33.1141L186.281 35.1132L186.301 35.1265L186.321 35.1394L187.596 33.1141ZM182.954 24.0251L185.349 24.0693V24.0472V24.0251H182.954ZM190.649 12.9841L191.533 15.2077L191.549 15.2012L191.565 15.1944L190.649 12.9841ZM211.476 16.3391L209.671 17.911L209.692 17.9357L209.714 17.9597L211.476 16.3391ZM214.468 22.1341L214.881 24.4905L217.406 24.0492L216.795 21.5635L214.468 22.1341ZM204.696 23.8421L202.341 24.27L202.766 26.6081L205.109 26.1985L204.696 23.8421ZM201.52 20.4261L200.693 22.6707L200.762 22.6962L200.833 22.7173L201.52 20.4261ZM194.497 21.8901L192.688 20.3234L192.656 20.3589L192.628 20.3957L194.497 21.8901ZM194.619 26.2211L192.926 27.9126L192.955 27.9417L192.986 27.9698L194.619 26.2211ZM200.421 29.0271L199.664 31.2965L199.681 31.302L199.698 31.3074L200.421 29.0271ZM210.437 33.1141L209.134 35.121L209.154 35.1335L209.173 35.1457L210.437 33.1141ZM214.041 36.7741L211.982 37.9966L212.002 38.0296L212.023 38.062L214.041 36.7741ZM191.138 53.7931L190.302 56.0345L190.324 56.0429L190.348 56.0509L191.138 53.7931ZM182.16 43.6061L181.697 41.2592L179.348 41.7225L179.81 44.0677L182.16 43.6061ZM189.694 42.0605C189.951 43.5494 190.495 44.9249 191.436 46.0525L195.116 42.9896C194.835 42.6533 194.565 42.1174 194.414 41.2476L189.694 42.0605ZM191.532 46.1605C192.441 47.125 193.532 47.8414 194.778 48.2942L196.415 43.7979C195.871 43.6001 195.414 43.2997 195.02 42.8816L191.532 46.1605ZM194.899 48.3345C196.087 48.6959 197.343 48.8652 198.65 48.8652V44.0809C197.759 44.0809 196.978 43.9656 196.294 43.7576L194.899 48.3345ZM198.65 48.8652C200.839 48.8652 202.901 48.4304 204.496 47.2187L201.598 43.4095C201.159 43.7431 200.288 44.0809 198.65 44.0809V48.8652ZM204.508 47.2101C206.117 45.9745 207.03 44.2552 207.03 42.2031H202.24C202.24 42.6723 202.096 43.0269 201.588 43.418L204.508 47.2101ZM207.03 42.2031C207.03 40.6269 206.501 39.1453 205.296 38.0179L202.02 41.5083C202.119 41.6008 202.24 41.7459 202.24 42.2031H207.03ZM205.351 38.0716C204.411 37.1314 203.186 36.4663 201.838 35.9852L200.227 40.4909C201.159 40.8231 201.685 41.1747 201.965 41.4545L205.351 38.0716ZM201.936 36.0227C200.754 35.5417 199.401 35.071 197.885 34.6083L196.485 39.1838C197.9 39.6158 199.112 40.0397 200.129 40.4534L201.936 36.0227ZM197.82 34.5895C196.239 34.1556 194.637 33.6616 193.012 33.1072L191.464 37.6349C193.177 38.2192 194.872 38.7418 196.55 39.2026L197.82 34.5895ZM193.06 33.1246C191.54 32.569 190.145 31.8892 188.871 31.0887L186.321 35.1394C187.896 36.1283 189.597 36.9531 191.415 37.6175L193.06 33.1246ZM188.912 31.1149C187.794 30.3815 186.912 29.453 186.245 28.3098L182.107 30.7203C183.149 32.5051 184.548 33.976 186.281 35.1132L188.912 31.1149ZM186.245 28.3098C185.668 27.3212 185.314 25.9541 185.349 24.0693L180.56 23.9808C180.513 26.488 180.974 28.7809 182.107 30.7203L186.245 28.3098ZM185.349 24.0251C185.349 21.7711 185.923 20.0127 186.957 18.6149L183.105 15.7712C181.371 18.1147 180.559 20.911 180.559 24.0251H185.349ZM186.957 18.6149C188.052 17.136 189.548 15.9939 191.533 15.2077L189.767 10.7604C187.028 11.8449 184.779 13.5088 183.105 15.7712L186.957 18.6149ZM191.565 15.1944C193.586 14.3594 195.974 13.9122 198.772 13.9122V9.1279C195.465 9.1279 192.436 9.6567 189.734 10.7737L191.565 15.1944ZM198.772 13.9122C201.309 13.9122 203.477 14.2848 205.317 14.9782L207.008 10.5019C204.532 9.56861 201.773 9.1279 198.772 9.1279V13.9122ZM205.317 14.9782C207.141 15.6655 208.57 16.6504 209.671 17.911L213.281 14.7671C211.613 12.8557 209.5 11.4412 207.008 10.5019L205.317 14.9782ZM209.714 17.9597C210.83 19.1697 211.655 20.7245 212.143 22.7046L216.795 21.5635C216.141 18.9076 214.972 16.5991 213.237 14.7184L209.714 17.9597ZM214.056 19.7777L204.284 21.4857L205.109 26.1985L214.881 24.4905L214.056 19.7777ZM207.053 23.4141C206.815 22.105 206.25 20.9114 205.29 19.9545L201.904 23.3376C202.086 23.5194 202.253 23.7898 202.341 24.27L207.053 23.4141ZM205.29 19.9545C204.426 19.0899 203.381 18.4861 202.209 18.1348L200.833 22.7173C201.288 22.854 201.629 23.0635 201.904 23.3376L205.29 19.9545ZM202.349 18.1814C201.328 17.8056 200.274 17.6069 199.2 17.6069V22.3912C199.673 22.3912 200.167 22.4772 200.693 22.6707L202.349 18.1814ZM199.2 17.6069C197.953 17.6069 196.751 17.8154 195.624 18.266L197.402 22.7082C197.903 22.5081 198.493 22.3912 199.2 22.3912V17.6069ZM195.624 18.266C194.485 18.7207 193.487 19.401 192.688 20.3234L196.308 23.4568C196.565 23.1591 196.911 22.9041 197.402 22.7082L195.624 18.266ZM192.628 20.3957C191.783 21.4483 191.369 22.6926 191.369 24.0251H196.159C196.159 23.7308 196.233 23.5518 196.368 23.3844L192.628 20.3957ZM191.369 24.0251C191.369 25.4769 191.855 26.8428 192.926 27.9126L196.312 24.5296C196.244 24.4607 196.159 24.3626 196.159 24.0251H191.369ZM192.986 27.9698C193.846 28.7721 194.91 29.4136 196.098 29.9356L198.027 25.5565C197.179 25.1838 196.614 24.8086 196.254 24.4723L192.986 27.9698ZM196.098 29.9356C197.193 30.417 198.383 30.87 199.664 31.2965L201.179 26.7576C200.018 26.3708 198.967 25.9698 198.027 25.5565L196.098 29.9356ZM199.698 31.3074C201.344 31.8288 203.032 32.3908 204.763 32.9937L206.341 28.4764C204.569 27.8593 202.838 27.2827 201.146 26.7467L199.698 31.3074ZM204.763 32.9937C206.338 33.5427 207.793 34.2525 209.134 35.121L211.741 31.1072C210.068 30.0236 208.266 29.1474 206.341 28.4764L204.763 32.9937ZM209.173 35.1457C210.358 35.8813 211.285 36.8254 211.982 37.9966L216.099 35.5515C215.006 33.7134 213.531 32.2175 211.702 31.0824L209.173 35.1457ZM212.023 38.062C212.652 39.0451 213.05 40.4153 213.05 42.3251H217.84C217.84 39.7615 217.304 37.4311 216.06 35.4861L212.023 38.062ZM213.05 42.3251C213.05 44.3123 212.568 46.0272 211.636 47.5349L215.712 50.0472C217.143 47.7323 217.84 45.1364 217.84 42.3251H213.05ZM211.636 47.5349C210.733 48.9971 209.34 50.2378 207.32 51.2118L209.403 55.5203C212.105 54.2169 214.255 52.4076 215.712 50.0472L211.636 47.5349ZM207.32 51.2118C205.383 52.1459 202.775 52.6819 199.383 52.6819V57.4662C203.238 57.4662 206.617 56.8635 209.403 55.5203L207.32 51.2118ZM199.383 52.6819C196.552 52.6819 194.077 52.286 191.929 51.5352L190.348 56.0509C193.085 57.0081 196.108 57.4662 199.383 57.4662V52.6819ZM191.975 51.5516C189.891 50.7757 188.252 49.6772 186.99 48.2842L183.438 51.494C185.27 53.5169 187.58 55.0211 190.302 56.0345L191.975 51.5516ZM186.99 48.2842C185.762 46.929 184.924 45.2418 184.511 43.1444L179.81 44.0677C180.374 46.9316 181.571 49.4331 183.438 51.494L186.99 48.2842ZM182.625 45.9529L192.519 44.0009L191.591 39.3072L181.697 41.2592L182.625 45.9529ZM216.93 12.7843V10.3922H214.535V12.7843H216.93ZM227.349 12.7843H229.744V10.3922H227.349V12.7843ZM228.307 42.7461L226.21 43.9017L226.218 43.9174L226.228 43.9329L228.307 42.7461ZM231.001 45.3176L229.901 47.4424L229.931 47.4576L229.961 47.4719L231.001 45.3176ZM239.264 45.3176L240.277 47.4854L240.306 47.4717L240.335 47.4573L239.264 45.3176ZM242.019 42.7461L239.953 41.5364L239.946 41.5477L239.94 41.5592L242.019 42.7461ZM243.036 12.7843V10.3922H240.641V12.7843H243.036ZM253.455 12.7843H255.85V10.3922H253.455V12.7843ZM251.958 45.3176L254.132 46.3227L254.139 46.3075L251.958 45.3176ZM247.827 50.7598L249.364 52.594L249.368 52.5906L247.827 50.7598ZM225.912 53.152L224.866 55.3041L224.88 55.3103L224.892 55.3164L225.912 53.152ZM219.385 47.351L217.359 48.6272L217.369 48.6414L219.385 47.351ZM216.93 15.1765H227.349V10.3922H216.93V15.1765ZM224.954 12.7843V38.6196H229.744V12.7843H224.954ZM224.954 38.6196C224.954 40.535 225.339 42.3251 226.21 43.9017L230.404 41.5904C229.998 40.8547 229.744 39.8938 229.744 38.6196H224.954ZM226.228 43.9329C227.099 45.4548 228.339 46.6354 229.901 47.4424L232.102 43.1929C231.349 42.8038 230.793 42.2699 230.386 41.5592L226.228 43.9329ZM229.961 47.4719C231.504 48.2162 233.23 48.5471 235.073 48.5471V43.7627C233.802 43.7627 232.814 43.5354 232.043 43.1634L229.961 47.4719ZM235.073 48.5471C236.948 48.5471 238.704 48.2189 240.277 47.4854L238.251 43.1499C237.43 43.5327 236.391 43.7627 235.073 43.7627V48.5471ZM240.335 47.4573C241.938 46.657 243.215 45.4764 244.098 43.9329L239.94 41.5592C239.544 42.2485 238.985 42.7822 238.194 43.178L240.335 47.4573ZM244.084 43.9558C245.016 42.3685 245.432 40.5584 245.432 38.6196H240.641C240.641 39.8702 240.378 40.8112 239.953 41.5364L244.084 43.9558ZM245.432 38.6196V12.7843H240.641V38.6196H245.432ZM243.036 15.1765H253.455V10.3922H243.036V15.1765ZM251.06 12.7843V37.6627H255.85V12.7843H251.06ZM251.06 37.6627C251.06 40.3015 250.607 42.5036 249.777 44.3278L254.139 46.3075C255.304 43.746 255.85 40.8449 255.85 37.6627H251.06ZM249.785 44.3127C248.928 46.1588 247.763 47.6874 246.285 48.929L249.368 52.5906C251.402 50.8818 252.992 48.7824 254.132 46.3227L249.785 44.3127ZM246.289 48.9256C244.821 50.153 243.122 51.0839 241.166 51.7118L242.632 56.2667C245.147 55.4592 247.399 54.2372 249.364 52.594L246.289 48.9256ZM241.166 51.7118C239.176 52.3506 237.088 52.6735 234.893 52.6735V57.4578C237.567 57.4578 240.15 57.0631 242.632 56.2667L241.166 51.7118ZM234.893 52.6735C231.94 52.6735 229.298 52.1001 226.932 50.9875L224.892 55.3164C227.954 56.7554 231.299 57.4578 234.893 57.4578V52.6735ZM226.957 50.9999C224.642 49.8777 222.802 48.2433 221.402 46.0605L217.369 48.6414C219.242 51.5619 221.753 53.7949 224.866 55.3041L226.957 50.9999ZM221.411 46.0748C220.071 43.9539 219.325 41.196 219.325 37.6627H214.535C214.535 41.8642 215.426 45.5651 217.359 48.6272L221.411 46.0748ZM219.325 37.6627V12.7843H214.535V37.6627H219.325ZM264.877 41.6541L267.237 41.2476L266.821 38.8323L264.414 39.3072L264.877 41.6541ZM266.099 44.5211L264.259 46.0525L264.306 46.108L264.355 46.1605L266.099 44.5211ZM268.419 46.0461L267.601 48.2942L267.661 48.316L267.722 48.3345L268.419 46.0461ZM275.87 45.3141L277.321 47.2187L277.331 47.2101L275.87 45.3141ZM276.481 39.7631L274.788 41.4545L274.815 41.4818L274.843 41.5083L276.481 39.7631ZM273.855 38.2381L272.952 40.4534L273 40.4732L273.05 40.4909L273.855 38.2381ZM270.007 36.8961L270.708 34.6083L270.676 34.5985L270.643 34.5895L270.007 36.8961ZM265.06 35.3711L264.238 37.6175L264.263 37.6265L264.287 37.6349L265.06 35.3711ZM260.419 33.1141L259.104 35.1132L259.124 35.1265L259.144 35.1394L260.419 33.1141ZM255.777 24.0251L258.172 24.0693V24.0472V24.0251H255.777ZM263.472 12.9841L264.356 15.2077L264.372 15.2012L264.388 15.1944L263.472 12.9841ZM284.299 16.3391L282.494 17.911L282.515 17.9357L282.537 17.9597L284.299 16.3391ZM287.291 22.1341L287.704 24.4905L290.229 24.0492L289.618 21.5635L287.291 22.1341ZM277.519 23.8421L275.164 24.27L275.589 26.6081L277.933 26.1985L277.519 23.8421ZM274.344 20.4261L273.516 22.6707L273.585 22.6962L273.656 22.7173L274.344 20.4261ZM267.32 21.8901L265.511 20.3234L265.479 20.3589L265.451 20.3957L267.32 21.8901ZM267.442 26.2211L265.749 27.9126L265.779 27.9417L265.809 27.9698L267.442 26.2211ZM273.244 29.0271L272.487 31.2965L272.504 31.302L272.521 31.3074L273.244 29.0271ZM283.26 33.1141L281.957 35.121L281.977 35.1335L281.996 35.1457L283.26 33.1141ZM286.864 36.7741L284.805 37.9966L284.826 38.0296L284.846 38.062L286.864 36.7741ZM263.961 53.7931L263.125 56.0345L263.148 56.0429L263.171 56.0509L263.961 53.7931ZM254.983 43.6061L254.52 41.2592L252.171 41.7225L252.634 44.0677L254.983 43.6061ZM262.517 42.0605C262.774 43.5494 263.318 44.9249 264.259 46.0525L267.939 42.9896C267.658 42.6533 267.388 42.1174 267.237 41.2476L262.517 42.0605ZM264.355 46.1605C265.264 47.125 266.355 47.8414 267.601 48.2942L269.238 43.7979C268.694 43.6001 268.237 43.2997 267.843 42.8816L264.355 46.1605ZM267.722 48.3345C268.91 48.6959 270.167 48.8652 271.473 48.8652V44.0809C270.582 44.0809 269.801 43.9656 269.118 43.7576L267.722 48.3345ZM271.473 48.8652C273.663 48.8652 275.724 48.4304 277.321 47.2187L274.421 43.4095C273.982 43.7431 273.111 44.0809 271.473 44.0809V48.8652ZM277.331 47.2101C278.94 45.9745 279.853 44.2552 279.853 42.2031H275.063C275.063 42.6723 274.92 43.0269 274.411 43.418L277.331 47.2101ZM279.853 42.2031C279.853 40.6269 279.324 39.1453 278.119 38.0179L274.843 41.5083C274.942 41.6008 275.063 41.7459 275.063 42.2031H279.853ZM278.176 38.0716C277.234 37.1314 276.009 36.4663 274.661 35.9852L273.05 40.4909C273.982 40.8231 274.508 41.1747 274.788 41.4545L278.176 38.0716ZM274.759 36.0227C273.577 35.5417 272.224 35.071 270.708 34.6083L269.308 39.1838C270.723 39.6158 271.935 40.0397 272.952 40.4534L274.759 36.0227ZM270.643 34.5895C269.062 34.1556 267.46 33.6616 265.835 33.1072L264.287 37.6349C266 38.2192 267.695 38.7418 269.373 39.2026L270.643 34.5895ZM265.884 33.1246C264.363 32.569 262.968 31.8892 261.694 31.0887L259.144 35.1394C260.719 36.1283 262.42 36.9531 264.238 37.6175L265.884 33.1246ZM261.735 31.1149C260.617 30.3815 259.735 29.453 259.068 28.3098L254.93 30.7203C255.972 32.5051 257.371 33.976 259.104 35.1132L261.735 31.1149ZM259.068 28.3098C258.491 27.3212 258.137 25.9541 258.172 24.0693L253.383 23.9808C253.336 26.488 253.798 28.7809 254.93 30.7203L259.068 28.3098ZM258.172 24.0251C258.172 21.7711 258.746 20.0127 259.78 18.6149L255.928 15.7712C254.194 18.1147 253.382 20.911 253.382 24.0251H258.172ZM259.78 18.6149C260.875 17.136 262.371 15.9939 264.356 15.2077L262.59 10.7604C259.852 11.8449 257.602 13.5088 255.928 15.7712L259.78 18.6149ZM264.388 15.1944C266.409 14.3594 268.797 13.9122 271.595 13.9122V9.1279C268.288 9.1279 265.259 9.6567 262.557 10.7737L264.388 15.1944ZM271.595 13.9122C274.132 13.9122 276.3 14.2848 278.14 14.9782L279.831 10.5019C277.355 9.56861 274.597 9.1279 271.595 9.1279V13.9122ZM278.14 14.9782C279.964 15.6655 281.393 16.6504 282.494 17.911L286.104 14.7671C284.436 12.8557 282.324 11.4412 279.831 10.5019L278.14 14.9782ZM282.537 17.9597C283.653 19.1697 284.478 20.7245 284.966 22.7046L289.618 21.5635C288.964 18.9076 287.795 16.5991 286.06 14.7184L282.537 17.9597ZM286.879 19.7777L277.107 21.4857L277.933 26.1985L287.704 24.4905L286.879 19.7777ZM279.876 23.4141C279.638 22.105 279.073 20.9114 278.115 19.9545L274.727 23.3376C274.909 23.5194 275.076 23.7898 275.164 24.27L279.876 23.4141ZM278.115 19.9545C277.249 19.0899 276.204 18.4861 275.032 18.1348L273.656 22.7173C274.112 22.854 274.453 23.0635 274.727 23.3376L278.115 19.9545ZM275.172 18.1814C274.151 17.8056 273.097 17.6069 272.023 17.6069V22.3912C272.496 22.3912 272.99 22.4772 273.516 22.6707L275.172 18.1814ZM272.023 17.6069C270.776 17.6069 269.574 17.8154 268.447 18.266L270.225 22.7082C270.726 22.5081 271.316 22.3912 272.023 22.3912V17.6069ZM268.447 18.266C267.308 18.7207 266.31 19.401 265.511 20.3234L269.131 23.4568C269.388 23.1591 269.735 22.9041 270.225 22.7082L268.447 18.266ZM265.451 20.3957C264.608 21.4483 264.192 22.6926 264.192 24.0251H268.982C268.982 23.7308 269.056 23.5518 269.191 23.3844L265.451 20.3957ZM264.192 24.0251C264.192 25.4769 264.678 26.8428 265.749 27.9126L269.137 24.5296C269.067 24.4607 268.982 24.3626 268.982 24.0251H264.192ZM265.809 27.9698C266.669 28.7721 267.733 29.4136 268.921 29.9356L270.85 25.5565C270.002 25.1838 269.437 24.8086 269.077 24.4723L265.809 27.9698ZM268.921 29.9356C270.016 30.417 271.206 30.87 272.487 31.2965L274.002 26.7576C272.841 26.3708 271.79 25.9698 270.85 25.5565L268.921 29.9356ZM272.521 31.3074C274.168 31.8288 275.856 32.3908 277.586 32.9937L279.164 28.4764C277.392 27.8593 275.661 27.2827 273.969 26.7467L272.521 31.3074ZM277.586 32.9937C279.161 33.5427 280.617 34.2525 281.957 35.121L284.564 31.1072C282.892 30.0236 281.089 29.1474 279.164 28.4764L277.586 32.9937ZM281.996 35.1457C283.181 35.8813 284.108 36.8254 284.805 37.9966L288.922 35.5515C287.829 33.7134 286.354 32.2175 284.525 31.0824L281.996 35.1457ZM284.846 38.062C285.475 39.0451 285.873 40.4153 285.873 42.3251H290.663C290.663 39.7615 290.127 37.4311 288.883 35.4861L284.846 38.062ZM285.873 42.3251C285.873 44.3123 285.391 46.0272 284.459 47.5349L288.535 50.0472C289.967 47.7323 290.663 45.1364 290.663 42.3251H285.873ZM284.459 47.5349C283.556 48.9971 282.163 50.2378 280.143 51.2118L282.226 55.5203C284.929 54.2169 287.078 52.4076 288.535 50.0472L284.459 47.5349ZM280.143 51.2118C278.206 52.1459 275.6 52.6819 272.206 52.6819V57.4662C276.061 57.4662 279.44 56.8635 282.226 55.5203L280.143 51.2118ZM272.206 52.6819C269.375 52.6819 266.9 52.286 264.753 51.5352L263.171 56.0509C265.908 57.0081 268.931 57.4662 272.206 57.4662V52.6819ZM264.798 51.5516C262.714 50.7757 261.075 49.6772 259.813 48.2842L256.261 51.494C258.093 53.5169 260.403 55.0211 263.125 56.0345L264.798 51.5516ZM259.813 48.2842C258.585 46.929 257.747 45.2418 257.334 43.1444L252.634 44.0677C253.198 46.9316 254.394 49.4331 256.261 51.494L259.813 48.2842ZM255.448 45.9529L265.342 44.0009L264.414 39.3072L254.52 41.2592L255.448 45.9529Z" fill="white"/>
</g>
</svg>
